<svg width="1121" height="520" viewBox="0 0 1121 520" fill="none" xmlns="http://www.w3.org/2000/svg">
<path d="M184.8 410H218.8L248 264H154.4L147.2 297.2H205.2L200.8 318.8C192.8 358.8 160 381.2 122.8 381.2C82.8 381.2 59.6 354.8 59.6 309.6C59.6 302 60.4 294 62 286L70.4 244C80.8 191.6 113.2 159.6 159.2 159.6C195.6 159.6 217.6 176.8 227.2 205.2L258.8 190C247.2 150 211.6 126 163.2 126C74.4 126 22.4 208.4 22 303.2C22 376.4 59.2 414.8 112.4 414.8C152.4 414.8 179.2 393.6 191.2 368.4H193.2L184.8 410ZM361.588 414.8C424.788 414.8 468.388 354 468.388 283.2C468.388 227.6 436.788 198 392.388 198C329.188 198 285.588 258.8 285.588 329.6C285.588 385.2 317.188 414.8 361.588 414.8ZM365.188 383.6C336.388 383.6 320.788 365.2 320.788 338C320.788 332 321.588 326.4 322.788 320.4L328.788 290.4C336.788 250.4 360.788 229.2 388.788 229.2C417.588 229.2 433.188 247.6 433.188 274.8C433.188 280.8 432.388 286.4 431.188 292.4L425.188 322.4C417.188 362.4 393.188 383.6 365.188 383.6ZM581.119 414.8C644.319 414.8 687.919 354 687.919 283.2C687.919 227.6 656.319 198 611.919 198C548.719 198 505.119 258.8 505.119 329.6C505.119 385.2 536.719 414.8 581.119 414.8ZM584.719 383.6C555.919 383.6 540.319 365.2 540.319 338C540.319 332 541.119 326.4 542.319 320.4L548.319 290.4C556.319 250.4 580.319 229.2 608.319 229.2C637.119 229.2 652.719 247.6 652.719 274.8C652.719 280.8 651.919 286.4 650.719 292.4L644.719 322.4C636.719 362.4 612.719 383.6 584.719 383.6ZM804.65 414.8C835.45 414.8 865.05 403.2 890.65 371.6L867.85 351.6C851.45 372 831.45 384 807.05 384C775.85 384 760.25 365.2 760.25 338C760.25 334 760.25 328 761.05 322.4C857.05 321.6 901.85 298.8 901.85 254C901.85 215.2 868.25 198 833.85 198C767.85 198 724.65 259.6 724.65 327.6C724.65 383.6 753.45 414.8 804.65 414.8ZM830.65 227.2C848.25 227.2 865.85 233.2 865.85 254.8C865.85 280.8 848.65 293.2 765.45 296.4L767.85 285.2C775.45 249.6 799.85 227.2 830.65 227.2ZM1030.57 300.4L993.766 376.4H991.766L983.766 300.4L969.766 202.8H934.966L966.966 417.6L944.166 459.6H906.966L900.966 490H932.566C956.966 490 968.966 479.6 982.966 454.4L1120.17 202.8H1082.57L1030.57 300.4Z" fill="url(#paint0_linear_114_22)"/>
<defs>
<linearGradient id="paint0_linear_114_22" x1="553" y1="0" x2="553" y2="520" gradientUnits="userSpaceOnUse">
<stop stop-color="#05CAF5"/>
<stop offset="1" stop-color="#0F22CB"/>
</linearGradient>
</defs>
</svg>
