<svg width="1518" height="391" viewBox="0 0 1518 391" fill="none" xmlns="http://www.w3.org/2000/svg">
<path d="M8.00781 305V270.82L28.3203 267.891L118.75 20.625H177.148L266.992 267.891L287.305 270.82V305H190.43V270.82L210.156 267.305L197.656 228.242H97.6562L85.1562 267.305L104.883 270.82V305H8.00781ZM111.133 186.25H184.18L150.977 88.7891L148.242 80.1953H147.07L144.141 89.375L111.133 186.25ZM301.953 305V270.82L329.492 264.961V133.906L299.023 128.047V93.6719H386.523V264.961L413.867 270.82V305H301.953ZM327.539 48.9453V0.3125H386.523V48.9453H327.539ZM437.305 305V270.82L464.648 264.961V133.906L434.375 128.047V93.6719H517.773L519.922 119.844L520.312 124.531C525.521 113.073 531.966 104.414 539.648 98.5547C547.331 92.6953 556.51 89.7656 567.188 89.7656C570.573 89.7656 574.284 90.0911 578.32 90.7422C582.357 91.263 585.938 91.9792 589.062 92.8906L583.008 145.43L554.688 143.867C546.615 143.477 540.039 144.844 534.961 147.969C530.013 151.094 525.586 155.586 521.68 161.445V264.961L549.023 270.82V305H437.305ZM697.07 390.547C667.513 390.547 644.336 385.273 627.539 374.727C610.742 364.18 602.344 351.159 602.344 335.664C602.344 324.987 605.599 315.612 612.109 307.539C618.62 299.596 627.148 293.151 637.695 288.203C634.31 285.208 631.706 281.693 629.883 277.656C628.19 273.62 627.344 268.997 627.344 263.789C627.344 255.456 629.362 248.229 633.398 242.109C637.435 235.859 642.839 230.391 649.609 225.703C637.109 219.193 627.409 210.664 620.508 200.117C613.607 189.44 610.156 177.721 610.156 164.961V162.227C610.156 147.904 613.997 135.339 621.68 124.531C629.362 113.594 640.104 105.065 653.906 98.9453C667.708 92.8255 683.789 89.7656 702.148 89.7656C708.008 89.7656 713.672 90.1562 719.141 90.9375C724.74 91.5885 730.078 92.5 735.156 93.6719H807.812V123.75H780.078C784.635 129.349 788.086 135.404 790.43 141.914C792.904 148.294 794.141 155.065 794.141 162.227V164.961C794.141 178.633 790.234 190.938 782.422 201.875C774.74 212.812 763.997 221.471 750.195 227.852C736.393 234.232 720.378 237.422 702.148 237.422C698.633 237.422 694.922 237.292 691.016 237.031C687.24 236.641 683.398 236.12 679.492 235.469C677.93 237.031 676.628 238.789 675.586 240.742C674.674 242.695 674.219 244.909 674.219 247.383C674.219 251.81 676.367 255 680.664 256.953C684.961 258.906 691.016 259.883 698.828 259.883H731.25C755.078 259.883 773.568 265.091 786.719 275.508C800 285.794 806.641 300.247 806.641 318.867C806.641 332.148 802.018 344.193 792.773 355C783.659 365.807 770.898 374.401 754.492 380.781C738.086 387.292 718.945 390.547 697.07 390.547ZM698.242 349.922C709.18 349.922 718.49 348.62 726.172 346.016C733.984 343.411 739.909 340.091 743.945 336.055C747.982 332.018 750 327.721 750 323.164C750 317.305 747.852 312.617 743.555 309.102C739.258 305.586 732.227 303.828 722.461 303.828H683.398C680.273 303.828 677.279 303.763 674.414 303.633C671.68 303.372 669.076 302.982 666.602 302.461C664.518 304.023 662.63 305.911 660.938 308.125C659.375 310.339 658.138 312.747 657.227 315.352C656.445 317.956 656.055 320.69 656.055 323.555C656.055 331.237 659.57 337.552 666.602 342.5C673.763 347.448 684.31 349.922 698.242 349.922ZM702.344 196.211C709.505 196.211 715.69 194.844 720.898 192.109C726.107 189.245 730.143 185.469 733.008 180.781C736.003 175.964 737.5 170.69 737.5 164.961V162.227C737.5 156.237 736.003 150.898 733.008 146.211C730.143 141.523 726.042 137.878 720.703 135.273C715.495 132.539 709.31 131.172 702.148 131.172C694.987 131.172 688.737 132.539 683.398 135.273C678.06 138.008 673.958 141.719 671.094 146.406C668.229 151.094 666.797 156.367 666.797 162.227V164.961C666.797 170.69 668.229 175.964 671.094 180.781C674.089 185.469 678.255 189.245 683.594 192.109C688.932 194.844 695.182 196.211 702.344 196.211ZM827.539 305V270.82L855.078 264.961V40.5469L824.609 34.6875V0.3125H912.109V264.961L939.648 270.82V305H827.539ZM1055.27 309.102C1034.44 309.102 1016.54 304.544 1001.56 295.43C986.589 286.315 975.13 273.685 967.188 257.539C959.245 241.263 955.273 222.578 955.273 201.484V197.383C955.273 176.419 959.245 157.865 967.188 141.719C975.13 125.443 986.523 112.747 1001.37 103.633C1016.34 94.388 1034.18 89.7656 1054.88 89.7656C1075.85 89.7656 1093.75 94.388 1108.59 103.633C1123.44 112.747 1134.83 125.378 1142.77 141.523C1150.72 157.669 1154.69 176.289 1154.69 197.383V201.484C1154.69 222.578 1150.72 241.263 1142.77 257.539C1134.83 273.685 1123.44 286.315 1108.59 295.43C1093.75 304.544 1075.98 309.102 1055.27 309.102ZM1055.27 265.352C1065.17 265.352 1073.24 262.682 1079.49 257.344C1085.74 252.005 1090.36 244.583 1093.36 235.078C1096.35 225.443 1097.85 214.245 1097.85 201.484V197.383C1097.85 184.883 1096.35 173.88 1093.36 164.375C1090.36 154.74 1085.68 147.253 1079.3 141.914C1073.05 136.445 1064.91 133.711 1054.88 133.711C1045.12 133.711 1037.04 136.445 1030.66 141.914C1024.28 147.253 1019.6 154.74 1016.6 164.375C1013.74 173.88 1012.3 184.883 1012.3 197.383V201.484C1012.3 214.245 1013.74 225.443 1016.6 235.078C1019.6 244.714 1024.28 252.201 1030.66 257.539C1037.04 262.747 1045.25 265.352 1055.27 265.352ZM1243.55 305L1194.34 132.734L1168.55 128.047V93.6719H1270.7V127.852L1248.44 132.148L1267.97 214.375L1271.88 230.586H1273.05L1278.32 214.375L1321.68 93.6719H1359.96L1401.95 215.938L1407.42 233.125H1408.59L1413.67 215.938L1436.72 132.344L1412.11 127.852V93.6719H1512.11V128.047L1487.5 132.734L1433.79 305H1385.74L1347.07 200.312L1340.23 177.07H1339.06L1332.23 200.508L1294.14 305H1243.55Z" fill="url(#paint0_linear_1_20)"/>
<defs>
<linearGradient id="paint0_linear_1_20" x1="759" y1="21" x2="759" y2="305" gradientUnits="userSpaceOnUse">
<stop stop-color="white"/>
<stop offset="1" stop-color="#30CDFF" stop-opacity="0.5"/>
</linearGradient>
</defs>
</svg>
