<svg width="1318" height="1260" viewBox="0 0 1318 1260" fill="none" xmlns="http://www.w3.org/2000/svg">
<path d="M1109.74 508.197C1109.74 770.685 900.457 983 642.871 983C385.285 983 176 770.685 176 508.197C176 245.709 385.285 33.3936 642.871 33.3936C900.457 33.3936 1109.74 245.709 1109.74 508.197Z" fill="#1E1E1E"/>
<path d="M1109.74 508.197C1109.74 770.685 900.457 983 642.871 983C385.285 983 176 770.685 176 508.197C176 245.709 385.285 33.3936 642.871 33.3936C900.457 33.3936 1109.74 245.709 1109.74 508.197Z" fill="url(#paint0_linear_311_58)"/>
<path d="M1109.74 508.197C1109.74 770.685 900.457 983 642.871 983C385.285 983 176 770.685 176 508.197C176 245.709 385.285 33.3936 642.871 33.3936C900.457 33.3936 1109.74 245.709 1109.74 508.197Z" stroke="#2052D2" stroke-width="34"/>
<ellipse cx="981.581" cy="180.328" rx="177.419" ry="180.328" fill="url(#paint1_linear_311_58)"/>
<path d="M1147 180.328C1147 273.477 1072.76 348.656 981.581 348.656C890.405 348.656 816.161 273.477 816.161 180.328C816.161 87.1782 890.405 12 981.581 12C1072.76 12 1147 87.1782 1147 180.328Z" stroke="white" stroke-opacity="0.25" stroke-width="24"/>
<path d="M239.6 1150H214.4L184 1063.2H65.2L34.8 1150H10.8L109.6 870.8H140.4L239.6 1150ZM177.6 1042.4L125.2 893.6H123.6L71.2 1042.4H177.6ZM298.4 889.6C287.6 889.6 282.8 883.6 282.8 875.2V871.2C282.8 862.8 287.6 856.8 298.4 856.8C309.2 856.8 314 862.8 314 871.2V875.2C314 883.6 309.2 889.6 298.4 889.6ZM287.2 1150V945.2H310V1150H287.2ZM407.266 1150H384.466V945.2H407.266V982H408.866C416.866 962.8 434.866 945.2 470.066 945.2H483.666V967.6H465.666C431.666 967.6 407.266 983.6 407.266 1010V1150ZM685.669 1174C685.669 1215.6 651.269 1234.8 587.269 1234.8C524.869 1234.8 498.869 1215.6 498.869 1183.6C498.869 1160.4 512.069 1146.8 534.069 1140.4V1137.2C521.269 1132 514.869 1122.8 514.869 1109.2C514.869 1089.2 530.069 1079.2 549.669 1074V1072.4C526.069 1061.6 511.669 1039.6 511.669 1010C511.669 968.8 540.869 940.4 586.069 940.4C602.069 940.4 616.069 944 627.269 950.4V940.4C627.269 928 632.869 919.6 646.069 919.6H681.269V939.6H639.669V959.2C653.269 971.6 661.269 989.2 661.269 1010C661.269 1051.6 631.669 1080 586.469 1080C579.269 1080 572.069 1078.8 565.269 1077.6C547.669 1082.4 534.869 1090.4 534.869 1104C534.869 1116 545.269 1122.4 567.669 1122.4H615.269C664.469 1122.4 685.669 1142 685.669 1174ZM663.669 1175.6C663.669 1156 651.669 1143.6 615.269 1143.6H548.869C531.269 1149.6 520.469 1161.2 520.469 1178.8C520.469 1200 538.069 1216 573.669 1216H599.269C638.869 1216 663.669 1203.2 663.669 1175.6ZM586.469 1061.6C617.669 1061.6 636.869 1045.2 636.869 1016.4V1003.6C636.869 975.6 617.669 958.8 586.469 958.8C554.869 958.8 536.069 975.6 536.069 1003.6V1016.4C536.069 1045.2 555.269 1061.6 586.469 1061.6ZM783.788 1150H754.588C738.188 1150 729.388 1140 729.388 1125.2V854H752.188V1130H783.788V1150ZM907.656 1154.8C853.656 1154.8 818.456 1114.8 818.456 1047.6C818.456 980.4 853.656 940.4 907.656 940.4C961.656 940.4 996.856 980.4 996.856 1047.6C996.856 1114.8 961.656 1154.8 907.656 1154.8ZM907.656 1134.4C947.256 1134.4 972.456 1108.4 972.456 1060.4V1034.8C972.456 987.2 947.256 960.8 907.656 960.8C868.056 960.8 842.856 986.8 842.856 1034.8V1060.4C842.856 1108 868.056 1134.4 907.656 1134.4ZM1087.21 1150L1029.61 945.2H1052.01L1101.21 1129.6H1102.01L1156.41 945.2H1177.61L1232.41 1129.6H1233.21L1282.01 945.2H1304.01L1246.41 1150H1218.41L1166.81 977.6H1166.01L1114.81 1150H1087.21Z" fill="url(#paint2_linear_311_58)"/>
<defs>
<linearGradient id="paint0_linear_311_58" x1="642.871" y1="16.3936" x2="642.871" y2="1000" gradientUnits="userSpaceOnUse">
<stop stop-color="#248FF2"/>
<stop offset="1" stop-color="#04437D" stop-opacity="0.15"/>
</linearGradient>
<linearGradient id="paint1_linear_311_58" x1="981.581" y1="0" x2="981.581" y2="360.656" gradientUnits="userSpaceOnUse">
<stop/>
<stop offset="1" stop-color="#FFE600" stop-opacity="0.71"/>
</linearGradient>
<linearGradient id="paint2_linear_311_58" x1="659" y1="740" x2="659" y2="1260" gradientUnits="userSpaceOnUse">
<stop stop-color="white"/>
<stop offset="1" stop-color="#436F97" stop-opacity="0.79"/>
</linearGradient>
</defs>
</svg>
