<svg width="1319" height="1280" viewBox="0 0 1319 1280" fill="none" xmlns="http://www.w3.org/2000/svg">
<path d="M1123.3 515.936C1123.3 789.596 908.235 1011.23 643.191 1011.23C378.148 1011.23 163.078 789.596 163.078 515.936C163.078 242.276 378.148 20.6431 643.191 20.6431C908.235 20.6431 1123.3 242.276 1123.3 515.936Z" fill="#1E1E1E"/>
<path d="M1123.3 515.936C1123.3 789.596 908.235 1011.23 643.191 1011.23C378.148 1011.23 163.078 789.596 163.078 515.936C163.078 242.276 378.148 20.6431 643.191 20.6431C908.235 20.6431 1123.3 242.276 1123.3 515.936Z" fill="url(#paint0_linear_316_36)"/>
<path d="M1123.3 515.936C1123.3 789.596 908.235 1011.23 643.191 1011.23C378.148 1011.23 163.078 789.596 163.078 515.936C163.078 242.276 378.148 20.6431 643.191 20.6431C908.235 20.6431 1123.3 242.276 1123.3 515.936Z" stroke="#2052D2" stroke-width="8"/>
<ellipse cx="982.071" cy="183.074" rx="177.508" ry="183.074" fill="url(#paint1_linear_316_36)"/>
<path d="M1155.58 183.074C1155.58 282.091 1077.78 362.148 982.071 362.148C886.36 362.148 808.562 282.091 808.562 183.074C808.562 84.0568 886.36 4 982.071 4C1077.78 4 1155.58 84.0568 1155.58 183.074Z" stroke="white" stroke-opacity="0.25" stroke-width="8"/>
<path d="M239.6 1161.27H214.4L184 1074.47H65.2L34.8 1161.27H10.8L109.6 882.069H140.4L239.6 1161.27ZM177.6 1053.67L125.2 904.869H123.6L71.2 1053.67H177.6ZM298.4 900.869C287.6 900.869 282.8 894.869 282.8 886.469V882.469C282.8 874.069 287.6 868.069 298.4 868.069C309.2 868.069 314 874.069 314 882.469V886.469C314 894.869 309.2 900.869 298.4 900.869ZM287.2 1161.27V956.469H310V1161.27H287.2ZM407.266 1161.27H384.466V956.469H407.266V993.269H408.866C416.866 974.069 434.866 956.469 470.066 956.469H483.666V978.869H465.666C431.666 978.869 407.266 994.869 407.266 1021.27V1161.27ZM685.669 1185.27C685.669 1226.87 651.269 1246.07 587.269 1246.07C524.869 1246.07 498.869 1226.87 498.869 1194.87C498.869 1171.67 512.069 1158.07 534.069 1151.67V1148.47C521.269 1143.27 514.869 1134.07 514.869 1120.47C514.869 1100.47 530.069 1090.47 549.669 1085.27V1083.67C526.069 1072.87 511.669 1050.87 511.669 1021.27C511.669 980.069 540.869 951.669 586.069 951.669C602.069 951.669 616.069 955.269 627.269 961.669V951.669C627.269 939.269 632.869 930.869 646.069 930.869H681.269V950.869H639.669V970.469C653.269 982.869 661.269 1000.47 661.269 1021.27C661.269 1062.87 631.669 1091.27 586.469 1091.27C579.269 1091.27 572.069 1090.07 565.269 1088.87C547.669 1093.67 534.869 1101.67 534.869 1115.27C534.869 1127.27 545.269 1133.67 567.669 1133.67H615.269C664.469 1133.67 685.669 1153.27 685.669 1185.27ZM663.669 1186.87C663.669 1167.27 651.669 1154.87 615.269 1154.87H548.869C531.269 1160.87 520.469 1172.47 520.469 1190.07C520.469 1211.27 538.069 1227.27 573.669 1227.27H599.269C638.869 1227.27 663.669 1214.47 663.669 1186.87ZM586.469 1072.87C617.669 1072.87 636.869 1056.47 636.869 1027.67V1014.87C636.869 986.869 617.669 970.069 586.469 970.069C554.869 970.069 536.069 986.869 536.069 1014.87V1027.67C536.069 1056.47 555.269 1072.87 586.469 1072.87ZM783.788 1161.27H754.588C738.188 1161.27 729.388 1151.27 729.388 1136.47V865.269H752.188V1141.27H783.788V1161.27ZM907.656 1166.07C853.656 1166.07 818.456 1126.07 818.456 1058.87C818.456 991.669 853.656 951.669 907.656 951.669C961.656 951.669 996.856 991.669 996.856 1058.87C996.856 1126.07 961.656 1166.07 907.656 1166.07ZM907.656 1145.67C947.256 1145.67 972.456 1119.67 972.456 1071.67V1046.07C972.456 998.469 947.256 972.069 907.656 972.069C868.056 972.069 842.856 998.069 842.856 1046.07V1071.67C842.856 1119.27 868.056 1145.67 907.656 1145.67ZM1087.21 1161.27L1029.61 956.469H1052.01L1101.21 1140.87H1102.01L1156.41 956.469H1177.61L1232.41 1140.87H1233.21L1282.01 956.469H1304.01L1246.41 1161.27H1218.41L1166.81 988.869H1166.01L1114.81 1161.27H1087.21Z" fill="url(#paint2_linear_316_36)"/>
<defs>
<linearGradient id="paint0_linear_316_36" x1="643.191" y1="16.6431" x2="643.191" y2="1015.23" gradientUnits="userSpaceOnUse">
<stop stop-color="#248FF2"/>
<stop offset="1" stop-color="#04437D" stop-opacity="0.15"/>
</linearGradient>
<linearGradient id="paint1_linear_316_36" x1="982.071" y1="0" x2="982.071" y2="366.148" gradientUnits="userSpaceOnUse">
<stop/>
<stop offset="1" stop-color="#FFE600" stop-opacity="0.71"/>
</linearGradient>
<linearGradient id="paint2_linear_316_36" x1="659.33" y1="751.269" x2="659.33" y2="1279.19" gradientUnits="userSpaceOnUse">
<stop stop-color="white"/>
<stop offset="1" stop-color="#436F97" stop-opacity="0.79"/>
</linearGradient>
</defs>
</svg>
