<svg width="1345" height="1345" viewBox="0 0 1345 1345" fill="none" xmlns="http://www.w3.org/2000/svg">
<ellipse cx="672" cy="499.839" rx="500" ry="499.839" fill="url(#paint0_linear_524_272)"/>
<ellipse cx="671.5" cy="507.614" rx="482.5" ry="492.386" fill="url(#paint1_linear_524_272)"/>
<path d="M212 1234L184 1151.6H71.2L43.2 1234H9.2L106.8 954.8H149.6L247.2 1234H212ZM128.4 986H126.4L79.2 1122H175.6L128.4 986ZM306.25 979.2C299.317 979.2 294.25 977.6 291.05 974.4C288.117 970.933 286.65 966.533 286.65 961.2V956C286.65 950.667 288.117 946.4 291.05 943.2C294.25 939.733 299.317 938 306.25 938C313.183 938 318.117 939.733 321.05 943.2C324.25 946.4 325.85 950.667 325.85 956V961.2C325.85 966.533 324.25 970.933 321.05 974.4C318.117 977.6 313.183 979.2 306.25 979.2ZM290.25 1027.6H322.25V1234H290.25V1027.6ZM390.25 1234V1027.6H422.25V1065.6H424.25C427.983 1055.73 434.65 1046.93 444.25 1039.2C453.85 1031.47 467.05 1027.6 483.85 1027.6H496.25V1059.6H477.45C460.117 1059.6 446.517 1062.93 436.65 1069.6C427.05 1076 422.25 1084.13 422.25 1094V1234H390.25ZM701.75 1256.8C701.75 1278.13 693.35 1293.73 676.55 1303.6C660.017 1313.73 635.083 1318.8 601.75 1318.8C569.483 1318.8 546.283 1314.4 532.15 1305.6C518.017 1296.8 510.95 1284.27 510.95 1268C510.95 1256.8 513.883 1248 519.75 1241.6C525.617 1235.47 533.617 1230.93 543.75 1228V1223.6C531.483 1217.73 525.35 1208.13 525.35 1194.8C525.35 1184.4 528.683 1176.53 535.35 1171.2C542.017 1165.6 550.55 1161.47 560.95 1158.8V1157.2C548.683 1151.33 539.083 1142.93 532.15 1132C525.483 1121.07 522.15 1108.4 522.15 1094C522.15 1083.6 524.017 1074 527.75 1065.2C531.483 1056.4 536.683 1048.93 543.35 1042.8C550.283 1036.4 558.417 1031.47 567.75 1028C577.35 1024.53 588.017 1022.8 599.75 1022.8C614.417 1022.8 627.483 1025.47 638.95 1030.8V1027.2C638.95 1019.2 640.817 1012.67 644.55 1007.6C648.283 1002.27 654.417 999.6 662.95 999.6H693.75V1027.6H654.55V1040.8C662.017 1047.2 667.75 1054.93 671.75 1064C676.017 1072.8 678.15 1082.8 678.15 1094C678.15 1104.4 676.283 1114 672.55 1122.8C668.817 1131.6 663.483 1139.2 656.55 1145.6C649.883 1151.73 641.75 1156.53 632.15 1160C622.55 1163.47 611.883 1165.2 600.15 1165.2C593.483 1165.2 586.817 1164.53 580.15 1163.2C573.217 1165.07 566.95 1167.87 561.35 1171.6C555.75 1175.07 552.95 1180 552.95 1186.4C552.95 1192.53 555.883 1196.67 561.75 1198.8C567.617 1200.93 575.217 1202 584.55 1202H628.55C654.15 1202 672.683 1206.93 684.15 1216.8C695.883 1226.4 701.75 1239.73 701.75 1256.8ZM671.75 1259.2C671.75 1250.93 668.55 1244.27 662.15 1239.2C656.017 1234.4 644.95 1232 628.95 1232H560.15C547.35 1237.87 540.95 1247.2 540.95 1260C540.95 1269.07 544.283 1276.8 550.95 1283.2C557.883 1289.6 569.483 1292.8 585.75 1292.8H615.35C633.217 1292.8 647.083 1290 656.95 1284.4C666.817 1278.8 671.75 1270.4 671.75 1259.2ZM600.15 1139.6C613.75 1139.6 624.55 1136.4 632.55 1130C640.55 1123.33 644.55 1113.2 644.55 1099.6V1088.4C644.55 1074.8 640.55 1064.8 632.55 1058.4C624.55 1051.73 613.75 1048.4 600.15 1048.4C586.55 1048.4 575.75 1051.73 567.75 1058.4C559.75 1064.8 555.75 1074.8 555.75 1088.4V1099.6C555.75 1113.2 559.75 1123.33 567.75 1130C575.75 1136.4 586.55 1139.6 600.15 1139.6ZM773.078 1234C761.878 1234 753.345 1230.93 747.478 1224.8C741.878 1218.4 739.078 1210.4 739.078 1200.8V938H771.078V1206H801.478V1234H773.078ZM926.063 1238.8C912.196 1238.8 899.529 1236.27 888.063 1231.2C876.596 1226.13 866.729 1218.93 858.463 1209.6C850.463 1200 844.196 1188.67 839.663 1175.6C835.129 1162.27 832.863 1147.33 832.863 1130.8C832.863 1114.53 835.129 1099.73 839.663 1086.4C844.196 1073.07 850.463 1061.73 858.463 1052.4C866.729 1042.8 876.596 1035.47 888.063 1030.4C899.529 1025.33 912.196 1022.8 926.063 1022.8C939.929 1022.8 952.463 1025.33 963.663 1030.4C975.129 1035.47 984.996 1042.8 993.263 1052.4C1001.53 1061.73 1007.93 1073.07 1012.46 1086.4C1017 1099.73 1019.26 1114.53 1019.26 1130.8C1019.26 1147.33 1017 1162.27 1012.46 1175.6C1007.93 1188.67 1001.53 1200 993.263 1209.6C984.996 1218.93 975.129 1226.13 963.663 1231.2C952.463 1236.27 939.929 1238.8 926.063 1238.8ZM926.063 1210.4C943.396 1210.4 957.529 1205.07 968.463 1194.4C979.396 1183.73 984.863 1167.47 984.863 1145.6V1116C984.863 1094.13 979.396 1077.87 968.463 1067.2C957.529 1056.53 943.396 1051.2 926.063 1051.2C908.729 1051.2 894.596 1056.53 883.663 1067.2C872.729 1077.87 867.263 1094.13 867.263 1116V1145.6C867.263 1167.47 872.729 1183.73 883.663 1194.4C894.596 1205.07 908.729 1210.4 926.063 1210.4ZM1048.34 1027.6H1079.54L1101.54 1116.8L1123.54 1207.2H1124.34L1149.54 1116.8L1175.54 1027.6H1203.94L1230.74 1116.8L1256.34 1207.2H1257.14L1278.34 1116.8L1300.74 1027.6H1330.74L1275.94 1234H1236.34L1207.54 1134.8L1189.54 1072H1188.74L1171.14 1134.8L1142.34 1234H1103.54L1048.34 1027.6Z" fill="url(#paint2_linear_524_272)"/>
<defs>
<linearGradient id="paint0_linear_524_272" x1="672" y1="0" x2="672" y2="999.678" gradientUnits="userSpaceOnUse">
<stop stop-color="#4FCCF3"/>
<stop offset="1" stop-color="#094DB4"/>
</linearGradient>
<linearGradient id="paint1_linear_524_272" x1="671.5" y1="15.2285" x2="671.5" y2="1000" gradientUnits="userSpaceOnUse">
<stop stop-color="#AFDDEC"/>
<stop offset="0.526042" stop-color="#FAFF1A" stop-opacity="0"/>
</linearGradient>
<linearGradient id="paint2_linear_524_272" x1="671.5" y1="824" x2="671.5" y2="1344" gradientUnits="userSpaceOnUse">
<stop stop-color="white"/>
<stop offset="1" stop-color="#436F97" stop-opacity="0.79"/>
</linearGradient>
</defs>
</svg>
