<svg width="1264" height="1299" viewBox="0 0 1264 1299" fill="none" xmlns="http://www.w3.org/2000/svg">
<circle cx="632" cy="500" r="500" fill="url(#paint0_radial_71_23)"/>
<circle cx="633.667" cy="498.333" r="491.667" fill="#0094FF" fill-opacity="0.54"/>
<circle cx="633.667" cy="498.333" r="491.667" fill="url(#paint1_linear_71_23)"/>
<path d="M8.39844 1199L114.453 918.922H135.547L240.625 1199H216.602L185.352 1114.82H63.2812L32.0312 1199H8.39844ZM71.0938 1094.12H177.539L130.664 967.555C129.362 964.039 128.32 961.044 127.539 958.57C126.758 955.966 125.781 952.776 124.609 949H123.828C122.656 952.906 121.615 956.161 120.703 958.766C119.792 961.24 118.815 964.104 117.773 967.359L71.0938 1094.12ZM289.258 951.734C284.049 951.734 279.818 950.107 276.562 946.852C273.307 943.596 271.68 939.43 271.68 934.352C271.68 929.534 273.307 925.497 276.562 922.242C279.818 918.987 284.049 917.359 289.258 917.359C294.466 917.359 298.698 918.987 301.953 922.242C305.208 925.497 306.836 929.534 306.836 934.352C306.836 939.43 305.208 943.596 301.953 946.852C298.828 950.107 294.596 951.734 289.258 951.734ZM299.609 1199H279.102V999H299.609V1199ZM452.93 1018.53C449.805 1016.84 446.615 1015.67 443.359 1015.02C440.104 1014.23 436.784 1013.84 433.398 1013.84C417.904 1013.84 405.143 1021.59 395.117 1037.09C385.221 1052.45 380.273 1073.87 380.273 1101.34V1199H360.156V999H380.273V1038.06H381.055C385.612 1024.52 392.643 1014.04 402.148 1006.62C411.784 999.195 422.721 995.484 434.961 995.484C439.648 995.484 444.01 995.875 448.047 996.656C452.214 997.438 456.51 998.935 460.938 1001.15L452.93 1018.53ZM657.812 1197.44C657.812 1229.73 650.26 1253.69 635.156 1269.31C620.182 1285.07 598.307 1292.95 569.531 1292.95C551.953 1292.95 536.133 1289.36 522.07 1282.2C508.008 1275.17 495.638 1265.08 484.961 1251.93L501.758 1239.23C511.133 1251.34 521.224 1260.13 532.031 1265.6C542.839 1271.2 555.599 1274 570.312 1274C591.276 1274 607.682 1268.01 619.531 1256.03C631.51 1244.05 637.5 1224.52 637.5 1197.44V1166.58H636.719C628.906 1178.95 619.01 1188.26 607.031 1194.51C595.182 1200.76 581.51 1203.88 566.016 1203.88C540.234 1203.88 519.401 1194.7 503.516 1176.34C487.76 1157.98 479.883 1133.51 479.883 1102.91C479.883 1069.05 488.672 1042.49 506.25 1023.22C523.828 1003.82 545.964 994.117 572.656 994.117C587.63 994.117 600.521 996.982 611.328 1002.71C622.266 1008.31 630.729 1016.25 636.719 1026.54H637.5V999H657.812V1197.44ZM637.5 1114.23V1076.34C637.5 1059.16 631.51 1044.31 619.531 1031.81C607.682 1019.31 592.188 1013.06 573.047 1013.06C551.693 1013.06 534.31 1020.88 520.898 1036.5C507.617 1052.12 500.977 1073.67 500.977 1101.15C500.977 1127.84 507.227 1148.48 519.727 1163.06C532.227 1177.65 548.112 1184.94 567.383 1184.94C588.867 1184.94 605.924 1178.1 618.555 1164.43C631.185 1150.76 637.5 1134.03 637.5 1114.23ZM717.969 1199V902.906H738.477V1199H717.969ZM881.445 1203.88C852.279 1203.88 828.841 1194.44 811.133 1175.56C793.424 1156.55 784.57 1131.49 784.57 1100.37C784.57 1068.73 794.01 1043.14 812.891 1023.61C831.901 1003.95 855.339 994.117 883.203 994.117C911.849 994.117 934.831 1003.95 952.148 1023.61C969.596 1043.14 978.32 1068.34 978.32 1099.2C978.32 1129.92 969.466 1155.05 951.758 1174.59C934.049 1194.12 910.612 1203.88 881.445 1203.88ZM882.227 1184.94C905.143 1184.94 923.307 1177.12 936.719 1161.5C950.26 1145.74 957.031 1124.91 957.031 1099C957.031 1073.48 950.326 1052.84 936.914 1037.09C923.503 1021.2 905.469 1013.26 882.812 1013.26C860.156 1013.26 841.602 1021.46 827.148 1037.87C812.826 1054.14 805.664 1075.04 805.664 1100.56C805.664 1126.21 812.63 1146.72 826.562 1162.09C840.625 1177.32 859.18 1184.94 882.227 1184.94ZM1258.4 999L1197.27 1199H1177.54L1134.38 1050.76C1133.33 1047.37 1132.62 1044.83 1132.23 1043.14C1131.84 1041.32 1131.45 1039.43 1131.05 1037.48H1130.08C1129.56 1039.69 1129.04 1041.71 1128.52 1043.53C1128.12 1045.35 1127.41 1047.63 1126.37 1050.37L1078.32 1199H1058.79L999.023 999H1020.31L1066.21 1154.47C1066.86 1156.81 1067.38 1158.9 1067.77 1160.72C1068.29 1162.54 1068.75 1164.56 1069.14 1166.77H1070.7C1071.35 1164.56 1071.88 1162.54 1072.27 1160.72C1072.79 1158.9 1073.44 1156.81 1074.22 1154.47L1124.22 999H1139.65L1184.18 1154.47C1184.7 1156.42 1185.16 1158.24 1185.55 1159.94C1186.07 1161.63 1186.65 1163.91 1187.3 1166.77H1188.67C1189.45 1163.91 1189.97 1161.7 1190.23 1160.13C1190.62 1158.57 1191.15 1156.68 1191.8 1154.47L1238.48 999H1258.4Z" fill="#AFDDFF"/>
<defs>
<radialGradient id="paint0_radial_71_23" cx="0" cy="0" r="1" gradientUnits="userSpaceOnUse" gradientTransform="translate(632 500) rotate(90) scale(500)">
<stop offset="0.5" stop-color="white" stop-opacity="0.7"/>
<stop offset="0.936667" stop-color="#0057FF"/>
</radialGradient>
<linearGradient id="paint1_linear_71_23" x1="633.667" y1="6.66666" x2="633.667" y2="990" gradientUnits="userSpaceOnUse">
<stop stop-color="#F0FBFF" stop-opacity="0.79"/>
<stop offset="1" stop-color="white" stop-opacity="0"/>
</linearGradient>
</defs>
</svg>
