<svg width="1264" height="1286" viewBox="0 0 1264 1286" fill="none" xmlns="http://www.w3.org/2000/svg">
<circle cx="632" cy="500" r="500" fill="url(#paint0_radial_89_126)"/>
<circle cx="633.667" cy="498.333" r="491.667" fill="#0094FF" fill-opacity="0.54"/>
<circle cx="633.667" cy="498.333" r="491.667" fill="url(#paint1_linear_89_126)"/>
<path d="M8.39844 1192L114.453 911.922H135.547L240.625 1192H216.602L185.352 1107.82H63.2812L32.0312 1192H8.39844ZM71.0938 1087.12H177.539L130.664 960.555C129.362 957.039 128.32 954.044 127.539 951.57C126.758 948.966 125.781 945.776 124.609 942H123.828C122.656 945.906 121.615 949.161 120.703 951.766C119.792 954.24 118.815 957.104 117.773 960.359L71.0938 1087.12ZM289.258 944.734C284.049 944.734 279.818 943.107 276.562 939.852C273.307 936.596 271.68 932.43 271.68 927.352C271.68 922.534 273.307 918.497 276.562 915.242C279.818 911.987 284.049 910.359 289.258 910.359C294.466 910.359 298.698 911.987 301.953 915.242C305.208 918.497 306.836 922.534 306.836 927.352C306.836 932.43 305.208 936.596 301.953 939.852C298.828 943.107 294.596 944.734 289.258 944.734ZM299.609 1192H279.102V992H299.609V1192ZM452.93 1011.53C449.805 1009.84 446.615 1008.67 443.359 1008.02C440.104 1007.23 436.784 1006.84 433.398 1006.84C417.904 1006.84 405.143 1014.59 395.117 1030.09C385.221 1045.45 380.273 1066.87 380.273 1094.34V1192H360.156V992H380.273V1031.06H381.055C385.612 1017.52 392.643 1007.04 402.148 999.617C411.784 992.195 422.721 988.484 434.961 988.484C439.648 988.484 444.01 988.875 448.047 989.656C452.214 990.438 456.51 991.935 460.938 994.148L452.93 1011.53ZM657.812 1190.44C657.812 1222.73 650.26 1246.69 635.156 1262.31C620.182 1278.07 598.307 1285.95 569.531 1285.95C551.953 1285.95 536.133 1282.36 522.07 1275.2C508.008 1268.17 495.638 1258.08 484.961 1244.93L501.758 1232.23C511.133 1244.34 521.224 1253.13 532.031 1258.6C542.839 1264.2 555.599 1267 570.312 1267C591.276 1267 607.682 1261.01 619.531 1249.03C631.51 1237.05 637.5 1217.52 637.5 1190.44V1159.58H636.719C628.906 1171.95 619.01 1181.26 607.031 1187.51C595.182 1193.76 581.51 1196.88 566.016 1196.88C540.234 1196.88 519.401 1187.7 503.516 1169.34C487.76 1150.98 479.883 1126.51 479.883 1095.91C479.883 1062.05 488.672 1035.49 506.25 1016.22C523.828 996.818 545.964 987.117 572.656 987.117C587.63 987.117 600.521 989.982 611.328 995.711C622.266 1001.31 630.729 1009.25 636.719 1019.54H637.5V992H657.812V1190.44ZM637.5 1107.23V1069.34C637.5 1052.16 631.51 1037.31 619.531 1024.81C607.682 1012.31 592.188 1006.06 573.047 1006.06C551.693 1006.06 534.31 1013.88 520.898 1029.5C507.617 1045.12 500.977 1066.67 500.977 1094.15C500.977 1120.84 507.227 1141.48 519.727 1156.06C532.227 1170.65 548.112 1177.94 567.383 1177.94C588.867 1177.94 605.924 1171.1 618.555 1157.43C631.185 1143.76 637.5 1127.03 637.5 1107.23ZM717.969 1192V895.906H738.477V1192H717.969ZM881.445 1196.88C852.279 1196.88 828.841 1187.44 811.133 1168.56C793.424 1149.55 784.57 1124.49 784.57 1093.37C784.57 1061.73 794.01 1036.14 812.891 1016.61C831.901 996.948 855.339 987.117 883.203 987.117C911.849 987.117 934.831 996.948 952.148 1016.61C969.596 1036.14 978.32 1061.34 978.32 1092.2C978.32 1122.92 969.466 1148.05 951.758 1167.59C934.049 1187.12 910.612 1196.88 881.445 1196.88ZM882.227 1177.94C905.143 1177.94 923.307 1170.12 936.719 1154.5C950.26 1138.74 957.031 1117.91 957.031 1092C957.031 1066.48 950.326 1045.84 936.914 1030.09C923.503 1014.2 905.469 1006.26 882.812 1006.26C860.156 1006.26 841.602 1014.46 827.148 1030.87C812.826 1047.14 805.664 1068.04 805.664 1093.56C805.664 1119.21 812.63 1139.72 826.562 1155.09C840.625 1170.32 859.18 1177.94 882.227 1177.94ZM1258.4 992L1197.27 1192H1177.54L1134.38 1043.76C1133.33 1040.37 1132.62 1037.83 1132.23 1036.14C1131.84 1034.32 1131.45 1032.43 1131.05 1030.48H1130.08C1129.56 1032.69 1129.04 1034.71 1128.52 1036.53C1128.12 1038.35 1127.41 1040.63 1126.37 1043.37L1078.32 1192H1058.79L999.023 992H1020.31L1066.21 1147.47C1066.86 1149.81 1067.38 1151.9 1067.77 1153.72C1068.29 1155.54 1068.75 1157.56 1069.14 1159.77H1070.7C1071.35 1157.56 1071.88 1155.54 1072.27 1153.72C1072.79 1151.9 1073.44 1149.81 1074.22 1147.47L1124.22 992H1139.65L1184.18 1147.47C1184.7 1149.42 1185.16 1151.24 1185.55 1152.94C1186.07 1154.63 1186.65 1156.91 1187.3 1159.77H1188.67C1189.45 1156.91 1189.97 1154.7 1190.23 1153.13C1190.62 1151.57 1191.15 1149.68 1191.8 1147.47L1238.48 992H1258.4Z" fill="#AFDDFF"/>
<defs>
<radialGradient id="paint0_radial_89_126" cx="0" cy="0" r="1" gradientUnits="userSpaceOnUse" gradientTransform="translate(632 500) rotate(90) scale(500)">
<stop offset="0.5" stop-color="white" stop-opacity="0.7"/>
<stop offset="0.936667" stop-color="#0057FF"/>
</radialGradient>
<linearGradient id="paint1_linear_89_126" x1="633.667" y1="6.66666" x2="633.667" y2="990" gradientUnits="userSpaceOnUse">
<stop stop-color="#F0FBFF" stop-opacity="0.79"/>
<stop offset="1" stop-color="white" stop-opacity="0"/>
</linearGradient>
</defs>
</svg>
