<svg width="1264" height="532" viewBox="0 0 1264 532" fill="none" xmlns="http://www.w3.org/2000/svg">
<path d="M8.39844 432L114.453 151.922H135.547L240.625 432H216.602L185.352 347.82H63.2812L32.0312 432H8.39844ZM71.0938 327.117H177.539L130.664 200.555C129.362 197.039 128.32 194.044 127.539 191.57C126.758 188.966 125.781 185.776 124.609 182H123.828C122.656 185.906 121.615 189.161 120.703 191.766C119.792 194.24 118.815 197.104 117.773 200.359L71.0938 327.117ZM289.258 184.734C284.049 184.734 279.818 183.107 276.562 179.852C273.307 176.596 271.68 172.43 271.68 167.352C271.68 162.534 273.307 158.497 276.562 155.242C279.818 151.987 284.049 150.359 289.258 150.359C294.466 150.359 298.698 151.987 301.953 155.242C305.208 158.497 306.836 162.534 306.836 167.352C306.836 172.43 305.208 176.596 301.953 179.852C298.828 183.107 294.596 184.734 289.258 184.734ZM299.609 432H279.102V232H299.609V432ZM452.93 251.531C449.805 249.839 446.615 248.667 443.359 248.016C440.104 247.234 436.784 246.844 433.398 246.844C417.904 246.844 405.143 254.591 395.117 270.086C385.221 285.451 380.273 306.87 380.273 334.344V432H360.156V232H380.273V271.062H381.055C385.612 257.521 392.643 247.039 402.148 239.617C411.784 232.195 422.721 228.484 434.961 228.484C439.648 228.484 444.01 228.875 448.047 229.656C452.214 230.438 456.51 231.935 460.938 234.148L452.93 251.531ZM657.812 430.438C657.812 462.729 650.26 486.688 635.156 502.312C620.182 518.068 598.307 525.945 569.531 525.945C551.953 525.945 536.133 522.365 522.07 515.203C508.008 508.172 495.638 498.081 484.961 484.93L501.758 472.234C511.133 484.344 521.224 493.133 532.031 498.602C542.839 504.201 555.599 507 570.312 507C591.276 507 607.682 501.01 619.531 489.031C631.51 477.052 637.5 457.521 637.5 430.438V399.578H636.719C628.906 411.948 619.01 421.258 607.031 427.508C595.182 433.758 581.51 436.883 566.016 436.883C540.234 436.883 519.401 427.703 503.516 409.344C487.76 390.984 479.883 366.505 479.883 335.906C479.883 302.052 488.672 275.49 506.25 256.219C523.828 236.818 545.964 227.117 572.656 227.117C587.63 227.117 600.521 229.982 611.328 235.711C622.266 241.31 630.729 249.253 636.719 259.539H637.5V232H657.812V430.438ZM637.5 347.234V309.344C637.5 292.156 631.51 277.312 619.531 264.812C607.682 252.312 592.188 246.062 573.047 246.062C551.693 246.062 534.31 253.875 520.898 269.5C507.617 285.125 500.977 306.674 500.977 334.148C500.977 360.841 507.227 381.479 519.727 396.062C532.227 410.646 548.112 417.938 567.383 417.938C588.867 417.938 605.924 411.102 618.555 397.43C631.185 383.758 637.5 367.026 637.5 347.234ZM717.969 432V135.906H738.477V432H717.969ZM881.445 436.883C852.279 436.883 828.841 427.443 811.133 408.562C793.424 389.552 784.57 364.487 784.57 333.367C784.57 301.727 794.01 276.141 812.891 256.609C831.901 236.948 855.339 227.117 883.203 227.117C911.849 227.117 934.831 236.948 952.148 256.609C969.596 276.141 978.32 301.336 978.32 332.195C978.32 362.924 969.466 388.055 951.758 407.586C934.049 427.117 910.612 436.883 881.445 436.883ZM882.227 417.938C905.143 417.938 923.307 410.125 936.719 394.5C950.26 378.745 957.031 357.911 957.031 332C957.031 306.479 950.326 285.841 936.914 270.086C923.503 254.201 905.469 246.258 882.812 246.258C860.156 246.258 841.602 254.461 827.148 270.867C812.826 287.143 805.664 308.042 805.664 333.562C805.664 359.214 812.63 379.721 826.562 395.086C840.625 410.32 859.18 417.938 882.227 417.938ZM1258.4 232L1197.27 432H1177.54L1134.38 283.758C1133.33 280.372 1132.62 277.833 1132.23 276.141C1131.84 274.318 1131.45 272.43 1131.05 270.477H1130.08C1129.56 272.69 1129.04 274.708 1128.52 276.531C1128.12 278.354 1127.41 280.633 1126.37 283.367L1078.32 432H1058.79L999.023 232H1020.31L1066.21 387.469C1066.86 389.812 1067.38 391.896 1067.77 393.719C1068.29 395.542 1068.75 397.56 1069.14 399.773H1070.7C1071.35 397.56 1071.88 395.542 1072.27 393.719C1072.79 391.896 1073.44 389.812 1074.22 387.469L1124.22 232H1139.65L1184.18 387.469C1184.7 389.422 1185.16 391.245 1185.55 392.938C1186.07 394.63 1186.65 396.909 1187.3 399.773H1188.67C1189.45 396.909 1189.97 394.695 1190.23 393.133C1190.62 391.57 1191.15 389.682 1191.8 387.469L1238.48 232H1258.4Z" fill="#AFDDFF"/>
</svg>
