<svg width="1900" height="500" viewBox="0 0 1900 500" fill="none" xmlns="http://www.w3.org/2000/svg">
<circle cx="250" cy="250" r="250" fill="url(#paint0_radial_89_133)"/>
<ellipse cx="250.833" cy="249.167" rx="245.833" ry="245.833" fill="#0094FF" fill-opacity="0.54"/>
<ellipse cx="250.833" cy="249.167" rx="245.833" ry="245.833" fill="url(#paint1_linear_89_133)"/>
<path d="M644.398 390L750.453 109.922H771.547L876.625 390H852.602L821.352 305.82H699.281L668.031 390H644.398ZM707.094 285.117H813.539L766.664 158.555C765.362 155.039 764.32 152.044 763.539 149.57C762.758 146.966 761.781 143.776 760.609 140H759.828C758.656 143.906 757.615 147.161 756.703 149.766C755.792 152.24 754.815 155.104 753.773 158.359L707.094 285.117ZM925.258 142.734C920.049 142.734 915.818 141.107 912.562 137.852C909.307 134.596 907.68 130.43 907.68 125.352C907.68 120.534 909.307 116.497 912.562 113.242C915.818 109.987 920.049 108.359 925.258 108.359C930.466 108.359 934.698 109.987 937.953 113.242C941.208 116.497 942.836 120.534 942.836 125.352C942.836 130.43 941.208 134.596 937.953 137.852C934.828 141.107 930.596 142.734 925.258 142.734ZM935.609 390H915.102V190H935.609V390ZM1088.93 209.531C1085.8 207.839 1082.61 206.667 1079.36 206.016C1076.1 205.234 1072.78 204.844 1069.4 204.844C1053.9 204.844 1041.14 212.591 1031.12 228.086C1021.22 243.451 1016.27 264.87 1016.27 292.344V390H996.156V190H1016.27V229.062H1017.05C1021.61 215.521 1028.64 205.039 1038.15 197.617C1047.78 190.195 1058.72 186.484 1070.96 186.484C1075.65 186.484 1080.01 186.875 1084.05 187.656C1088.21 188.438 1092.51 189.935 1096.94 192.148L1088.93 209.531ZM1293.81 388.438C1293.81 420.729 1286.26 444.688 1271.16 460.312C1256.18 476.068 1234.31 483.945 1205.53 483.945C1187.95 483.945 1172.13 480.365 1158.07 473.203C1144.01 466.172 1131.64 456.081 1120.96 442.93L1137.76 430.234C1147.13 442.344 1157.22 451.133 1168.03 456.602C1178.84 462.201 1191.6 465 1206.31 465C1227.28 465 1243.68 459.01 1255.53 447.031C1267.51 435.052 1273.5 415.521 1273.5 388.438V357.578H1272.72C1264.91 369.948 1255.01 379.258 1243.03 385.508C1231.18 391.758 1217.51 394.883 1202.02 394.883C1176.23 394.883 1155.4 385.703 1139.52 367.344C1123.76 348.984 1115.88 324.505 1115.88 293.906C1115.88 260.052 1124.67 233.49 1142.25 214.219C1159.83 194.818 1181.96 185.117 1208.66 185.117C1223.63 185.117 1236.52 187.982 1247.33 193.711C1258.27 199.31 1266.73 207.253 1272.72 217.539H1273.5V190H1293.81V388.438ZM1273.5 305.234V267.344C1273.5 250.156 1267.51 235.312 1255.53 222.812C1243.68 210.312 1228.19 204.062 1209.05 204.062C1187.69 204.062 1170.31 211.875 1156.9 227.5C1143.62 243.125 1136.98 264.674 1136.98 292.148C1136.98 318.841 1143.23 339.479 1155.73 354.062C1168.23 368.646 1184.11 375.938 1203.38 375.938C1224.87 375.938 1241.92 369.102 1254.55 355.43C1267.18 341.758 1273.5 325.026 1273.5 305.234ZM1353.97 390V93.9062H1374.48V390H1353.97ZM1517.45 394.883C1488.28 394.883 1464.84 385.443 1447.13 366.562C1429.42 347.552 1420.57 322.487 1420.57 291.367C1420.57 259.727 1430.01 234.141 1448.89 214.609C1467.9 194.948 1491.34 185.117 1519.2 185.117C1547.85 185.117 1570.83 194.948 1588.15 214.609C1605.6 234.141 1614.32 259.336 1614.32 290.195C1614.32 320.924 1605.47 346.055 1587.76 365.586C1570.05 385.117 1546.61 394.883 1517.45 394.883ZM1518.23 375.938C1541.14 375.938 1559.31 368.125 1572.72 352.5C1586.26 336.745 1593.03 315.911 1593.03 290C1593.03 264.479 1586.33 243.841 1572.91 228.086C1559.5 212.201 1541.47 204.258 1518.81 204.258C1496.16 204.258 1477.6 212.461 1463.15 228.867C1448.83 245.143 1441.66 266.042 1441.66 291.562C1441.66 317.214 1448.63 337.721 1462.56 353.086C1476.62 368.32 1495.18 375.938 1518.23 375.938ZM1894.4 190L1833.27 390H1813.54L1770.38 241.758C1769.33 238.372 1768.62 235.833 1768.23 234.141C1767.84 232.318 1767.45 230.43 1767.05 228.477H1766.08C1765.56 230.69 1765.04 232.708 1764.52 234.531C1764.12 236.354 1763.41 238.633 1762.37 241.367L1714.32 390H1694.79L1635.02 190H1656.31L1702.21 345.469C1702.86 347.812 1703.38 349.896 1703.77 351.719C1704.29 353.542 1704.75 355.56 1705.14 357.773H1706.7C1707.35 355.56 1707.88 353.542 1708.27 351.719C1708.79 349.896 1709.44 347.812 1710.22 345.469L1760.22 190H1775.65L1820.18 345.469C1820.7 347.422 1821.16 349.245 1821.55 350.938C1822.07 352.63 1822.65 354.909 1823.3 357.773H1824.67C1825.45 354.909 1825.97 352.695 1826.23 351.133C1826.62 349.57 1827.15 347.682 1827.8 345.469L1874.48 190H1894.4Z" fill="#AFDDFF"/>
<defs>
<radialGradient id="paint0_radial_89_133" cx="0" cy="0" r="1" gradientUnits="userSpaceOnUse" gradientTransform="translate(250 250) rotate(90) scale(250)">
<stop offset="0.5" stop-color="white" stop-opacity="0.7"/>
<stop offset="0.936667" stop-color="#0057FF"/>
</radialGradient>
<linearGradient id="paint1_linear_89_133" x1="250.833" y1="3.33333" x2="250.833" y2="495" gradientUnits="userSpaceOnUse">
<stop stop-color="#F0FBFF" stop-opacity="0.79"/>
<stop offset="1" stop-color="white" stop-opacity="0"/>
</linearGradient>
</defs>
</svg>
