<svg width="1000" height="1000" viewBox="0 0 1000 1000" fill="none" xmlns="http://www.w3.org/2000/svg">
<path d="M950.742 508.197C950.742 770.685 741.457 983 483.871 983C226.285 983 17 770.685 17 508.197C17 245.709 226.285 33.3936 483.871 33.3936C741.457 33.3936 950.742 245.709 950.742 508.197Z" fill="#1E1E1E"/>
<path d="M950.742 508.197C950.742 770.685 741.457 983 483.871 983C226.285 983 17 770.685 17 508.197C17 245.709 226.285 33.3936 483.871 33.3936C741.457 33.3936 950.742 245.709 950.742 508.197Z" fill="url(#paint0_linear_311_43)"/>
<path d="M950.742 508.197C950.742 770.685 741.457 983 483.871 983C226.285 983 17 770.685 17 508.197C17 245.709 226.285 33.3936 483.871 33.3936C741.457 33.3936 950.742 245.709 950.742 508.197Z" stroke="#2052D2" stroke-width="34"/>
<ellipse cx="822.58" cy="180.328" rx="177.419" ry="180.328" fill="url(#paint1_linear_311_43)"/>
<path d="M988 180.328C988 273.477 913.756 348.656 822.58 348.656C731.405 348.656 657.161 273.477 657.161 180.328C657.161 87.1782 731.405 12 822.58 12C913.756 12 988 87.1782 988 180.328Z" stroke="white" stroke-opacity="0.25" stroke-width="24"/>
<defs>
<linearGradient id="paint0_linear_311_43" x1="483.871" y1="16.3936" x2="483.871" y2="1000" gradientUnits="userSpaceOnUse">
<stop stop-color="#248FF2"/>
<stop offset="1" stop-color="#04437D" stop-opacity="0.15"/>
</linearGradient>
<linearGradient id="paint1_linear_311_43" x1="822.58" y1="0" x2="822.58" y2="360.656" gradientUnits="userSpaceOnUse">
<stop/>
<stop offset="1" stop-color="#FFE600" stop-opacity="0.71"/>
</linearGradient>
</defs>
</svg>
