<svg width="1125" height="1125" viewBox="0 0 1125 1125" fill="none" xmlns="http://www.w3.org/2000/svg">
<path d="M565.092 49L575.58 43.1694L565.522 25.0768L554.82 42.7959L565.092 49ZM565.092 49C575.58 43.1694 575.58 43.1704 575.582 43.1724L575.587 43.1818L575.608 43.2201L575.694 43.3741L576.035 43.9878C576.338 44.5316 576.789 45.3429 577.385 46.4114C578.576 48.5485 580.341 51.7145 582.638 55.827C587.232 64.052 593.952 76.0628 602.452 91.2001C619.454 121.475 643.579 164.254 672.066 214.261C729.048 314.291 803.451 443.188 873.206 558.783C1017.73 798.279 843.172 1111 557.082 1111C269.838 1111 116.701 789.36 249.344 558.995C313.713 447.203 390.086 318.146 450.353 217.062C480.489 166.514 506.604 122.95 525.186 92.023C534.476 76.5592 541.884 64.2541 546.969 55.8141C549.512 51.5941 551.474 48.3404 552.801 46.1413C553.464 45.0418 553.969 44.2058 554.307 43.6446L554.69 43.0101L554.787 42.85L554.812 42.8096L554.818 42.7994C554.819 42.7971 554.82 42.7959 565.092 49Z" fill="#1E1E1E"/>
<path d="M565.092 49L575.58 43.1694L565.522 25.0768L554.82 42.7959L565.092 49ZM565.092 49C575.58 43.1694 575.58 43.1704 575.582 43.1724L575.587 43.1818L575.608 43.2201L575.694 43.3741L576.035 43.9878C576.338 44.5316 576.789 45.3429 577.385 46.4114C578.576 48.5485 580.341 51.7145 582.638 55.827C587.232 64.052 593.952 76.0628 602.452 91.2001C619.454 121.475 643.579 164.254 672.066 214.261C729.048 314.291 803.451 443.188 873.206 558.783C1017.73 798.279 843.172 1111 557.082 1111C269.838 1111 116.701 789.36 249.344 558.995C313.713 447.203 390.086 318.146 450.353 217.062C480.489 166.514 506.604 122.95 525.186 92.023C534.476 76.5592 541.884 64.2541 546.969 55.8141C549.512 51.5941 551.474 48.3404 552.801 46.1413C553.464 45.0418 553.969 44.2058 554.307 43.6446L554.69 43.0101L554.787 42.85L554.812 42.8096L554.818 42.7994C554.819 42.7971 554.82 42.7959 565.092 49Z" fill="url(#paint0_linear_211_14)"/>
<path d="M565.092 49L575.58 43.1694L565.522 25.0768L554.82 42.7959L565.092 49ZM565.092 49C575.58 43.1694 575.58 43.1704 575.582 43.1724L575.587 43.1818L575.608 43.2201L575.694 43.3741L576.035 43.9878C576.338 44.5316 576.789 45.3429 577.385 46.4114C578.576 48.5485 580.341 51.7145 582.638 55.827C587.232 64.052 593.952 76.0628 602.452 91.2001C619.454 121.475 643.579 164.254 672.066 214.261C729.048 314.291 803.451 443.188 873.206 558.783C1017.73 798.279 843.172 1111 557.082 1111C269.838 1111 116.701 789.36 249.344 558.995C313.713 447.203 390.086 318.146 450.353 217.062C480.489 166.514 506.604 122.95 525.186 92.023C534.476 76.5592 541.884 64.2541 546.969 55.8141C549.512 51.5941 551.474 48.3404 552.801 46.1413C553.464 45.0418 553.969 44.2058 554.307 43.6446L554.69 43.0101L554.787 42.85L554.812 42.8096L554.818 42.7994C554.819 42.7971 554.82 42.7959 565.092 49Z" stroke="#D2204A" stroke-width="24"/>
<defs>
<linearGradient id="paint0_linear_211_14" x1="563" y1="49" x2="563" y2="1099" gradientUnits="userSpaceOnUse">
<stop stop-color="#F22456"/>
<stop offset="1" stop-color="#F22456" stop-opacity="0.18"/>
</linearGradient>
</defs>
</svg>
