<svg width="1264" height="391" viewBox="0 0 1264 391" fill="none" xmlns="http://www.w3.org/2000/svg">
<path d="M8.39844 297L114.453 16.9219H135.547L240.625 297H216.602L185.352 212.82H63.2812L32.0312 297H8.39844ZM71.0938 192.117H177.539L130.664 65.5547C129.362 62.0391 128.32 59.0443 127.539 56.5703C126.758 53.9661 125.781 50.776 124.609 47H123.828C122.656 50.9062 121.615 54.1615 120.703 56.7656C119.792 59.2396 118.815 62.1042 117.773 65.3594L71.0938 192.117ZM289.258 49.7344C284.049 49.7344 279.818 48.1068 276.562 44.8516C273.307 41.5964 271.68 37.4297 271.68 32.3516C271.68 27.5339 273.307 23.4974 276.562 20.2422C279.818 16.987 284.049 15.3594 289.258 15.3594C294.466 15.3594 298.698 16.987 301.953 20.2422C305.208 23.4974 306.836 27.5339 306.836 32.3516C306.836 37.4297 305.208 41.5964 301.953 44.8516C298.828 48.1068 294.596 49.7344 289.258 49.7344ZM299.609 297H279.102V97H299.609V297ZM452.93 116.531C449.805 114.839 446.615 113.667 443.359 113.016C440.104 112.234 436.784 111.844 433.398 111.844C417.904 111.844 405.143 119.591 395.117 135.086C385.221 150.451 380.273 171.87 380.273 199.344V297H360.156V97H380.273V136.062H381.055C385.612 122.521 392.643 112.039 402.148 104.617C411.784 97.1953 422.721 93.4844 434.961 93.4844C439.648 93.4844 444.01 93.875 448.047 94.6562C452.214 95.4375 456.51 96.9349 460.938 99.1484L452.93 116.531ZM657.812 295.438C657.812 327.729 650.26 351.688 635.156 367.312C620.182 383.068 598.307 390.945 569.531 390.945C551.953 390.945 536.133 387.365 522.07 380.203C508.008 373.172 495.638 363.081 484.961 349.93L501.758 337.234C511.133 349.344 521.224 358.133 532.031 363.602C542.839 369.201 555.599 372 570.312 372C591.276 372 607.682 366.01 619.531 354.031C631.51 342.052 637.5 322.521 637.5 295.438V264.578H636.719C628.906 276.948 619.01 286.258 607.031 292.508C595.182 298.758 581.51 301.883 566.016 301.883C540.234 301.883 519.401 292.703 503.516 274.344C487.76 255.984 479.883 231.505 479.883 200.906C479.883 167.052 488.672 140.49 506.25 121.219C523.828 101.818 545.964 92.1172 572.656 92.1172C587.63 92.1172 600.521 94.9818 611.328 100.711C622.266 106.31 630.729 114.253 636.719 124.539H637.5V97H657.812V295.438ZM637.5 212.234V174.344C637.5 157.156 631.51 142.312 619.531 129.812C607.682 117.312 592.188 111.062 573.047 111.062C551.693 111.062 534.31 118.875 520.898 134.5C507.617 150.125 500.977 171.674 500.977 199.148C500.977 225.841 507.227 246.479 519.727 261.062C532.227 275.646 548.112 282.938 567.383 282.938C588.867 282.938 605.924 276.102 618.555 262.43C631.185 248.758 637.5 232.026 637.5 212.234ZM717.969 297V0.90625H738.477V297H717.969ZM881.445 301.883C852.279 301.883 828.841 292.443 811.133 273.562C793.424 254.552 784.57 229.487 784.57 198.367C784.57 166.727 794.01 141.141 812.891 121.609C831.901 101.948 855.339 92.1172 883.203 92.1172C911.849 92.1172 934.831 101.948 952.148 121.609C969.596 141.141 978.32 166.336 978.32 197.195C978.32 227.924 969.466 253.055 951.758 272.586C934.049 292.117 910.612 301.883 881.445 301.883ZM882.227 282.938C905.143 282.938 923.307 275.125 936.719 259.5C950.26 243.745 957.031 222.911 957.031 197C957.031 171.479 950.326 150.841 936.914 135.086C923.503 119.201 905.469 111.258 882.812 111.258C860.156 111.258 841.602 119.461 827.148 135.867C812.826 152.143 805.664 173.042 805.664 198.562C805.664 224.214 812.63 244.721 826.562 260.086C840.625 275.32 859.18 282.938 882.227 282.938ZM1258.4 97L1197.27 297H1177.54L1134.38 148.758C1133.33 145.372 1132.62 142.833 1132.23 141.141C1131.84 139.318 1131.45 137.43 1131.05 135.477H1130.08C1129.56 137.69 1129.04 139.708 1128.52 141.531C1128.12 143.354 1127.41 145.633 1126.37 148.367L1078.32 297H1058.79L999.023 97H1020.31L1066.21 252.469C1066.86 254.812 1067.38 256.896 1067.77 258.719C1068.29 260.542 1068.75 262.56 1069.14 264.773H1070.7C1071.35 262.56 1071.88 260.542 1072.27 258.719C1072.79 256.896 1073.44 254.812 1074.22 252.469L1124.22 97H1139.65L1184.18 252.469C1184.7 254.422 1185.16 256.245 1185.55 257.938C1186.07 259.63 1186.65 261.909 1187.3 264.773H1188.67C1189.45 261.909 1189.97 259.695 1190.23 258.133C1190.62 256.57 1191.15 254.682 1191.8 252.469L1238.48 97H1258.4Z" fill="#AFDDFF"/>
</svg>
