<svg width="1518" height="1086" viewBox="0 0 1518 1086" fill="none" xmlns="http://www.w3.org/2000/svg">
<circle cx="759" cy="500" r="500" fill="#0689E9"/>
<ellipse cx="758.5" cy="507.5" rx="482.5" ry="492.5" fill="url(#paint0_linear_7_49)"/>
<path d="M8.00781 1000V965.82L28.3203 962.891L118.75 715.625H177.148L266.992 962.891L287.305 965.82V1000H190.43V965.82L210.156 962.305L197.656 923.242H97.6562L85.1562 962.305L104.883 965.82V1000H8.00781ZM111.133 881.25H184.18L150.977 783.789L148.242 775.195H147.07L144.141 784.375L111.133 881.25ZM301.953 1000V965.82L329.492 959.961V828.906L299.023 823.047V788.672H386.523V959.961L413.867 965.82V1000H301.953ZM327.539 743.945V695.312H386.523V743.945H327.539ZM437.305 1000V965.82L464.648 959.961V828.906L434.375 823.047V788.672H517.773L519.922 814.844L520.312 819.531C525.521 808.073 531.966 799.414 539.648 793.555C547.331 787.695 556.51 784.766 567.188 784.766C570.573 784.766 574.284 785.091 578.32 785.742C582.357 786.263 585.938 786.979 589.062 787.891L583.008 840.43L554.688 838.867C546.615 838.477 540.039 839.844 534.961 842.969C530.013 846.094 525.586 850.586 521.68 856.445V959.961L549.023 965.82V1000H437.305ZM697.07 1085.55C667.513 1085.55 644.336 1080.27 627.539 1069.73C610.742 1059.18 602.344 1046.16 602.344 1030.66C602.344 1019.99 605.599 1010.61 612.109 1002.54C618.62 994.596 627.148 988.151 637.695 983.203C634.31 980.208 631.706 976.693 629.883 972.656C628.19 968.62 627.344 963.997 627.344 958.789C627.344 950.456 629.362 943.229 633.398 937.109C637.435 930.859 642.839 925.391 649.609 920.703C637.109 914.193 627.409 905.664 620.508 895.117C613.607 884.44 610.156 872.721 610.156 859.961V857.227C610.156 842.904 613.997 830.339 621.68 819.531C629.362 808.594 640.104 800.065 653.906 793.945C667.708 787.826 683.789 784.766 702.148 784.766C708.008 784.766 713.672 785.156 719.141 785.938C724.74 786.589 730.078 787.5 735.156 788.672H807.812V818.75H780.078C784.635 824.349 788.086 830.404 790.43 836.914C792.904 843.294 794.141 850.065 794.141 857.227V859.961C794.141 873.633 790.234 885.938 782.422 896.875C774.74 907.812 763.997 916.471 750.195 922.852C736.393 929.232 720.378 932.422 702.148 932.422C698.633 932.422 694.922 932.292 691.016 932.031C687.24 931.641 683.398 931.12 679.492 930.469C677.93 932.031 676.628 933.789 675.586 935.742C674.674 937.695 674.219 939.909 674.219 942.383C674.219 946.81 676.367 950 680.664 951.953C684.961 953.906 691.016 954.883 698.828 954.883H731.25C755.078 954.883 773.568 960.091 786.719 970.508C800 980.794 806.641 995.247 806.641 1013.87C806.641 1027.15 802.018 1039.19 792.773 1050C783.659 1060.81 770.898 1069.4 754.492 1075.78C738.086 1082.29 718.945 1085.55 697.07 1085.55ZM698.242 1044.92C709.18 1044.92 718.49 1043.62 726.172 1041.02C733.984 1038.41 739.909 1035.09 743.945 1031.05C747.982 1027.02 750 1022.72 750 1018.16C750 1012.3 747.852 1007.62 743.555 1004.1C739.258 1000.59 732.227 998.828 722.461 998.828H683.398C680.273 998.828 677.279 998.763 674.414 998.633C671.68 998.372 669.076 997.982 666.602 997.461C664.518 999.023 662.63 1000.91 660.938 1003.12C659.375 1005.34 658.138 1007.75 657.227 1010.35C656.445 1012.96 656.055 1015.69 656.055 1018.55C656.055 1026.24 659.57 1032.55 666.602 1037.5C673.763 1042.45 684.31 1044.92 698.242 1044.92ZM702.344 891.211C709.505 891.211 715.69 889.844 720.898 887.109C726.107 884.245 730.143 880.469 733.008 875.781C736.003 870.964 737.5 865.69 737.5 859.961V857.227C737.5 851.237 736.003 845.898 733.008 841.211C730.143 836.523 726.042 832.878 720.703 830.273C715.495 827.539 709.31 826.172 702.148 826.172C694.987 826.172 688.737 827.539 683.398 830.273C678.06 833.008 673.958 836.719 671.094 841.406C668.229 846.094 666.797 851.367 666.797 857.227V859.961C666.797 865.69 668.229 870.964 671.094 875.781C674.089 880.469 678.255 884.245 683.594 887.109C688.932 889.844 695.182 891.211 702.344 891.211ZM827.539 1000V965.82L855.078 959.961V735.547L824.609 729.688V695.312H912.109V959.961L939.648 965.82V1000H827.539ZM1055.27 1004.1C1034.44 1004.1 1016.54 999.544 1001.56 990.43C986.589 981.315 975.13 968.685 967.188 952.539C959.245 936.263 955.273 917.578 955.273 896.484V892.383C955.273 871.419 959.245 852.865 967.188 836.719C975.13 820.443 986.523 807.747 1001.37 798.633C1016.34 789.388 1034.18 784.766 1054.88 784.766C1075.85 784.766 1093.75 789.388 1108.59 798.633C1123.44 807.747 1134.83 820.378 1142.77 836.523C1150.72 852.669 1154.69 871.289 1154.69 892.383V896.484C1154.69 917.578 1150.72 936.263 1142.77 952.539C1134.83 968.685 1123.44 981.315 1108.59 990.43C1093.75 999.544 1075.98 1004.1 1055.27 1004.1ZM1055.27 960.352C1065.17 960.352 1073.24 957.682 1079.49 952.344C1085.74 947.005 1090.36 939.583 1093.36 930.078C1096.35 920.443 1097.85 909.245 1097.85 896.484V892.383C1097.85 879.883 1096.35 868.88 1093.36 859.375C1090.36 849.74 1085.68 842.253 1079.3 836.914C1073.05 831.445 1064.91 828.711 1054.88 828.711C1045.12 828.711 1037.04 831.445 1030.66 836.914C1024.28 842.253 1019.6 849.74 1016.6 859.375C1013.74 868.88 1012.3 879.883 1012.3 892.383V896.484C1012.3 909.245 1013.74 920.443 1016.6 930.078C1019.6 939.714 1024.28 947.201 1030.66 952.539C1037.04 957.747 1045.25 960.352 1055.27 960.352ZM1243.55 1000L1194.34 827.734L1168.55 823.047V788.672H1270.7V822.852L1248.44 827.148L1267.97 909.375L1271.88 925.586H1273.05L1278.32 909.375L1321.68 788.672H1359.96L1401.95 910.938L1407.42 928.125H1408.59L1413.67 910.938L1436.72 827.344L1412.11 822.852V788.672H1512.11V823.047L1487.5 827.734L1433.79 1000H1385.74L1347.07 895.312L1340.23 872.07H1339.06L1332.23 895.508L1294.14 1000H1243.55Z" fill="url(#paint1_linear_7_49)"/>
<defs>
<linearGradient id="paint0_linear_7_49" x1="758.5" y1="15" x2="758.5" y2="1000" gradientUnits="userSpaceOnUse">
<stop stop-color="#AFDDEC"/>
<stop offset="0.526042" stop-color="#FAFF1A" stop-opacity="0"/>
</linearGradient>
<linearGradient id="paint1_linear_7_49" x1="759" y1="716" x2="759" y2="1000" gradientUnits="userSpaceOnUse">
<stop stop-color="white"/>
<stop offset="1" stop-color="#30CDFF" stop-opacity="0.5"/>
</linearGradient>
</defs>
</svg>
