<svg width="1500" height="1500" viewBox="0 0 1500 1500" fill="none" xmlns="http://www.w3.org/2000/svg">
<circle cx="750" cy="565" r="500" fill="#D9D9D9"/>
<circle cx="750" cy="565" r="441" fill="url(#paint0_linear_333_91)" stroke="url(#paint1_linear_333_91)" stroke-width="18"/>
<ellipse cx="749.5" cy="579" rx="434.5" ry="450" fill="url(#paint2_linear_333_91)"/>
<path d="M325.2 1341H290L262 1258.6H149.2L121.2 1341H87.2L184.8 1061.8H227.6L325.2 1341ZM253.6 1229L206.4 1093H204.4L157.2 1229H253.6ZM384.25 1086.2C370.65 1086.2 364.65 1079 364.65 1068.2V1063C364.65 1052.2 370.65 1045 384.25 1045C397.85 1045 403.85 1052.2 403.85 1063V1068.2C403.85 1079 397.85 1086.2 384.25 1086.2ZM368.25 1341V1134.6H400.25V1341H368.25ZM500.25 1341H468.25V1134.6H500.25V1172.6H502.25C509.45 1153 528.25 1134.6 561.85 1134.6H574.25V1166.6H555.45C521.05 1166.6 500.25 1181.4 500.25 1201V1341ZM779.75 1363.8C779.75 1406.2 746.15 1425.8 679.75 1425.8C615.35 1425.8 588.95 1407.4 588.95 1375C588.95 1352.6 601.35 1340.6 621.75 1335V1330.6C610.15 1325 603.35 1315.8 603.35 1301.8C603.35 1281 618.15 1271 638.95 1265.8V1264.2C614.55 1252.6 600.15 1229.8 600.15 1201C600.15 1159 630.95 1129.8 677.75 1129.8C692.55 1129.8 705.75 1132.6 716.95 1137.8V1134.2C716.95 1118.2 723.75 1106.6 740.95 1106.6H771.75V1134.6H732.55V1147.8C747.35 1160.6 756.15 1179 756.15 1201C756.15 1243 725.35 1272.2 678.15 1272.2C671.35 1272.2 664.15 1271.4 658.15 1270.2C644.55 1273.8 630.95 1280.6 630.95 1293.4C630.95 1305.8 643.75 1309 662.55 1309H706.55C757.75 1309 779.75 1329.8 779.75 1363.8ZM749.75 1366.2C749.75 1349.8 738.95 1339 706.95 1339H638.15C624.95 1345 618.95 1354.2 618.95 1367C618.95 1385 631.35 1399.8 663.75 1399.8H693.35C728.95 1399.8 749.75 1388.6 749.75 1366.2ZM678.15 1246.6C705.35 1246.6 722.55 1233.8 722.55 1206.6V1195.4C722.55 1168.2 705.35 1155.4 678.15 1155.4C650.95 1155.4 633.75 1168.2 633.75 1195.4V1206.6C633.75 1233.8 650.95 1246.6 678.15 1246.6ZM879.478 1341H851.078C829.078 1341 817.078 1327 817.078 1307.8V1045H849.078V1313H879.478V1341ZM1004.06 1345.8C948.863 1345.8 910.863 1303.4 910.863 1237.8C910.863 1172.2 948.863 1129.8 1004.06 1129.8C1059.26 1129.8 1097.26 1172.2 1097.26 1237.8C1097.26 1303.4 1059.26 1345.8 1004.06 1345.8ZM1004.06 1317.4C1038.46 1317.4 1062.86 1296.2 1062.86 1252.6V1223C1062.86 1179.4 1038.46 1158.2 1004.06 1158.2C969.663 1158.2 945.263 1179.4 945.263 1223V1252.6C945.263 1296.2 969.663 1317.4 1004.06 1317.4ZM1181.54 1341L1126.34 1134.6H1157.54L1179.54 1223.8L1201.54 1314.2H1202.34L1227.54 1223.8L1253.54 1134.6H1281.94L1308.74 1223.8L1334.34 1314.2H1335.14L1356.34 1223.8L1378.74 1134.6H1408.74L1353.94 1341H1314.34L1285.54 1241.8L1267.54 1179H1266.74L1249.14 1241.8L1220.34 1341H1181.54Z" fill="url(#paint3_linear_333_91)"/>
<defs>
<linearGradient id="paint0_linear_333_91" x1="750" y1="115" x2="750" y2="1015" gradientUnits="userSpaceOnUse">
<stop stop-color="#4FCCF3"/>
<stop offset="1" stop-color="#01183A"/>
</linearGradient>
<linearGradient id="paint1_linear_333_91" x1="750" y1="115" x2="750" y2="1015" gradientUnits="userSpaceOnUse">
<stop stop-color="#162864"/>
<stop offset="0.494792" stop-color="white" stop-opacity="0"/>
</linearGradient>
<linearGradient id="paint2_linear_333_91" x1="749.5" y1="129" x2="749.5" y2="1029" gradientUnits="userSpaceOnUse">
<stop stop-color="#AFDDEC"/>
<stop offset="0.526042" stop-color="#FAFF1A" stop-opacity="0"/>
</linearGradient>
<linearGradient id="paint3_linear_333_91" x1="749.5" y1="931" x2="749.5" y2="1451" gradientUnits="userSpaceOnUse">
<stop stop-color="white"/>
<stop offset="1" stop-color="#436F97" stop-opacity="0.79"/>
</linearGradient>
</defs>
</svg>
