<svg width="1000" height="1000" viewBox="0 0 1000 1000" fill="none" xmlns="http://www.w3.org/2000/svg">
<path d="M958.742 508.197C958.742 774.98 745.998 991 483.871 991C221.744 991 9 774.98 9 508.197C9 241.413 221.744 25.3936 483.871 25.3936C745.998 25.3936 958.742 241.413 958.742 508.197Z" fill="#1E1E1E"/>
<path d="M958.742 508.197C958.742 774.98 745.998 991 483.871 991C221.744 991 9 774.98 9 508.197C9 241.413 221.744 25.3936 483.871 25.3936C745.998 25.3936 958.742 241.413 958.742 508.197Z" fill="url(#paint0_linear_322_31)"/>
<path d="M958.742 508.197C958.742 774.98 745.998 991 483.871 991C221.744 991 9 774.98 9 508.197C9 241.413 221.744 25.3936 483.871 25.3936C745.998 25.3936 958.742 241.413 958.742 508.197Z" stroke="#2052D2" stroke-width="18"/>
<path d="M991 180.328C991 275.088 915.458 351.656 822.58 351.656C729.702 351.656 654.161 275.088 654.161 180.328C654.161 85.5676 729.702 9 822.58 9C915.458 9 991 85.5676 991 180.328Z" fill="url(#paint1_linear_322_31)" stroke="#CED049" stroke-width="18"/>
<defs>
<linearGradient id="paint0_linear_322_31" x1="483.871" y1="16.3936" x2="483.871" y2="1000" gradientUnits="userSpaceOnUse">
<stop stop-color="#248FF2"/>
<stop offset="1" stop-color="#04437D" stop-opacity="0.15"/>
</linearGradient>
<linearGradient id="paint1_linear_322_31" x1="822.58" y1="0" x2="822.58" y2="360.656" gradientUnits="userSpaceOnUse">
<stop stop-color="#FFE60A"/>
<stop offset="1" stop-color="#FF36AF"/>
</linearGradient>
</defs>
</svg>
